HIERARCHY
ROOT Hips
{
	OFFSET 182.371002 92.491722 19.190800
	CHANNELS 6 Xposition Yposition Zposition Zrotation Yrotation Xrotation 
	JOINT LeftUpLeg
	{
		OFFSET 0.103461 1.857828 10.548504
		CHANNELS 3 Zrotation Yrotation Xrotation
		JOINT LeftLeg
		{
			OFFSET 43.500008 -0.000031 0.000006
			CHANNELS 3 Zrotation Yrotation Xrotation
			JOINT LeftFoot
			{
				OFFSET 42.372200 0.000019 -0.000010
				CHANNELS 3 Zrotation Yrotation Xrotation
				JOINT LeftToe
				{
					OFFSET 17.299999 -0.000000 0.000002
					CHANNELS 3 Zrotation Yrotation Xrotation
					End Site
					{
						OFFSET 0.000000 0.000000 0.000000
					}
				}
			}
		}
	}
	JOINT RightUpLeg
	{
		OFFSET 0.103457 1.857829 -10.548504
		CHANNELS 3 Zrotation Yrotation Xrotation
		JOINT RightLeg
		{
			OFFSET 43.500046 -0.000019 0.000011
			CHANNELS 3 Zrotation Yrotation Xrotation
			JOINT RightFoot
			{
				OFFSET 42.372261 0.000000 0.000008
				CHANNELS 3 Zrotation Yrotation Xrotation
				JOINT RightToe
				{
					OFFSET 17.299990 -0.000006 0.000008
					CHANNELS 3 Zrotation Yrotation Xrotation
					End Site
					{
						OFFSET 0.000000 0.000000 0.000000
					}
				}
			}
		}
	}
	JOINT Spine
	{
		OFFSET 6.901969 -2.603727 -0.000006
		CHANNELS 3 Zrotation Yrotation Xrotation
		JOINT Spine1
		{
			OFFSET 12.588100 -0.000002 0.000002
			CHANNELS 3 Zrotation Yrotation Xrotation
			JOINT Spine2
			{
				OFFSET 12.343195 0.000004 0.000008
				CHANNELS 3 Zrotation Yrotation Xrotation
				JOINT Neck
				{
					OFFSET 25.832905 -0.000008 -0.000002
					CHANNELS 3 Zrotation Yrotation Xrotation
					JOINT Head
					{
						OFFSET 11.766608 0.000010 -0.000008
						CHANNELS 3 Zrotation Yrotation Xrotation
						End Site
						{
							OFFSET 0.000000 0.000000 0.000000
						}
					}
				}
				JOINT LeftShoulder
				{
					OFFSET 19.745903 -1.480370 6.000106
					CHANNELS 3 Zrotation Yrotation Xrotation
					JOINT LeftArm
					{
						OFFSET 11.284119 -0.000006 -0.000014
						CHANNELS 3 Zrotation Yrotation Xrotation
						JOINT LeftForeArm
						{
							OFFSET 33.000050 0.000004 0.000026
							CHANNELS 3 Zrotation Yrotation Xrotation
							JOINT LeftHand
							{
								OFFSET 25.200020 0.000017 0.000004
								CHANNELS 3 Zrotation Yrotation Xrotation
								End Site
								{
									OFFSET 0.000000 0.000000 0.000000
								}
							}
						}
					}
				}
				JOINT RightShoulder
				{
					OFFSET 19.746099 -1.480375 -6.000082
					CHANNELS 3 Zrotation Yrotation Xrotation
					JOINT RightArm
					{
						OFFSET 11.284140 -0.000015 -0.000008
						CHANNELS 3 Zrotation Yrotation Xrotation
						JOINT RightForeArm
						{
							OFFSET 33.000084 0.000016 0.000002
							CHANNELS 3 Zrotation Yrotation Xrotation
							JOINT RightHand
							{
								OFFSET 25.199783 0.000142 0.000437
								CHANNELS 3 Zrotation Yrotation Xrotation
								End Site
								{
									OFFSET 0.000000 0.000000 0.000000
								}
							}
						}
					}
				}
			}
		}
	}
}
MOTION
Frames: 9
Frame Time: 0.033333
-22.449900 92.295967 -59.376049 85.536344 -2.734041 -31.697996 -175.405282 0.742202 170.725346 -10.508188 -2.168581 -7.173611 82.766634 5.058514 0.246950 21.454553 0.003091 -0.000000 -177.407279 0.044099 -176.014152 -17.870261 0.801240 3.871855 84.359031 -2.295936 2.089017 21.454555 -0.003114 -0.000018 7.204790 -0.826560 0.042756 4.396785 -1.654175 0.054384 4.078548 -1.653675 0.064380 6.544599 6.238376 -1.835561 -10.889487 -1.656160 -0.751825 -171.000438 -75.126719 -10.655567 -21.697435 53.166848 40.621683 -25.361606 -13.070990 1.024546 3.247079 -8.093668 2.410296 170.660295 71.474262 -8.257075 -16.242540 -49.880247 22.229967 -127.897792 -7.567079 -3.455381 -39.550009 -20.055281 46.883586 
-22.444630 92.379478 -59.651321 85.747376 -2.700212 -32.291987 -175.333483 0.582199 169.906816 -10.267291 -2.074100 -7.027276 82.614198 4.923416 0.076292 21.454557 0.003094 0.000001 -176.673689 -0.105601 -176.134705 -16.113900 0.916143 3.551475 83.969868 -2.140580 1.764569 21.454557 -0.003105 -0.000017 7.046071 -0.796633 -0.004637 4.079961 -1.592670 -0.037059 3.761709 -1.592717 -0.027429 6.755241 6.437902 -1.897608 -10.698319 -1.491695 -0.861055 -170.647646 -75.346487 -11.017581 -21.960475 53.311891 39.687084 -25.997472 -13.271873 1.047614 3.891435 -9.563631 0.396256 171.273632 71.236155 -7.634277 -16.875996 -49.436534 23.475690 -129.288091 -7.724713 -3.497618 -43.553750 -22.535548 48.293375 
-22.431971 92.404671 -59.922291 85.896070 -2.640924 -33.099974 -175.199680 0.500598 169.152148 -10.032825 -2.008620 -7.037466 82.610954 4.885677 -0.130004 21.454555 0.003092 -0.000000 -176.123531 -0.079996 -176.226230 -14.774181 1.147512 3.039028 83.771799 -1.883001 1.312852 21.454560 -0.003107 -0.000017 6.917318 -0.782205 -0.025897 3.822678 -1.563193 -0.077307 3.504436 -1.563484 -0.067859 6.762411 6.428751 -1.863653 -10.830759 -1.320378 -0.877798 -170.246126 -75.378910 -11.428704 -22.123225 53.023093 39.574143 -27.149531 -13.568888 1.085905 3.952265 -10.624537 -1.259805 171.413323 70.988021 -7.498732 -16.623234 -49.246764 23.019438 -128.851683 -7.440874 -3.500198 -38.888973 -22.805728 44.434779 
-22.425341 92.414200 -60.163639 86.005687 -2.609502 -34.115968 -174.894384 0.529799 168.726149 -9.559659 -1.920178 -7.371095 82.630747 5.055136 -0.409109 21.454548 0.003090 -0.000000 -175.679036 -0.059009 -176.619389 -13.666451 1.350682 2.665591 83.576701 -1.701218 0.962845 21.454558 -0.003108 -0.000018 6.814859 -0.765958 -0.010671 3.617488 -1.531256 -0.044965 3.299273 -1.531358 -0.035710 6.625393 6.273629 -1.770156 -10.950623 -1.163850 -0.835097 -169.966170 -75.092999 -11.714677 -22.309945 52.475736 39.498403 -28.282748 -13.953303 1.130475 3.452444 -11.055413 -1.284302 171.268209 70.835960 -7.652995 -15.335667 -49.686706 21.309499 -126.778092 -6.901702 -3.457113 -29.801690 -21.957031 37.847663 
-22.374830 92.407913 -60.394428 86.157577 -2.670274 -35.208983 -174.870096 0.390308 168.676685 -9.671508 -1.929681 -7.967585 82.963077 5.394833 -0.739809 21.454551 0.003093 0.000000 -175.462478 -0.173902 -178.166591 -12.913870 1.679913 2.882244 83.352767 -1.898630 0.764706 21.454560 -0.003095 -0.000016 6.738922 -0.728658 0.017554 3.465174 -1.457548 0.013617 3.146955 -1.457302 0.022425 6.424057 6.257492 -1.696136 -11.288515 -1.340911 -0.690135 -169.359376 -75.016302 -12.335991 -22.747120 52.308389 39.058655 -29.090110 -14.310937 1.168203 3.207223 -11.142338 -0.738131 171.126592 70.698714 -7.803226 -13.450482 -50.418561 18.498020 -124.288310 -6.106911 -3.413332 -19.247304 -19.504433 29.803442 
-22.278931 92.383614 -60.581810 86.294468 -2.807231 -36.416011 -175.174408 0.128999 168.627344 -10.529684 -1.988867 -8.623422 83.534013 5.777552 -1.062838 21.454555 0.003093 -0.000000 -175.587607 -0.346099 -179.701048 -12.845218 1.887503 3.000496 83.210569 -2.009283 0.650683 21.454555 -0.003106 -0.000017 6.707546 -0.667585 0.048066 3.402043 -1.336324 0.076773 3.083840 -1.335697 0.084849 6.112242 6.037556 -1.606345 -11.648555 -1.345875 -0.596480 -168.248036 -74.852590 -13.474303 -23.386515 52.375106 37.911341 -29.476679 -14.557443 1.191282 2.653071 -11.022194 0.416981 170.898040 70.576823 -8.042467 -11.229196 -51.370976 15.459959 -121.658701 -5.422788 -3.354397 -10.421744 -16.593700 22.317088 
-22.134871 92.301079 -60.735760 86.361383 -3.094195 -37.557008 -176.036282 -0.505796 168.652848 -12.803593 -2.353061 -9.242166 84.547524 6.141600 -1.382388 21.454553 0.003092 -0.000000 -175.893367 -0.585692 179.131260 -13.401090 2.059968 2.925620 83.285455 -1.989185 0.525908 21.454560 -0.003106 -0.000017 6.754429 -0.581292 0.038774 3.495884 -1.163538 0.060230 3.177710 -1.163010 0.067256 5.663073 5.860519 -1.501807 -12.033931 -1.452127 -0.444147 -167.588090 -74.775996 -14.150614 -23.920974 52.656671 36.667273 -29.701822 -14.675840 1.203163 2.609410 -11.829820 0.276274 171.142206 70.589124 -7.790718 -9.550094 -52.346102 12.699191 -118.440903 -4.697599 -3.271809 -5.580427 -14.247950 15.544966 
-21.893921 92.099182 -60.811722 86.586691 -3.472664 -38.662962 -177.901948 -1.608901 168.176483 -16.918160 -2.762516 -9.472536 86.048308 6.211472 -1.891196 21.454557 0.003094 0.000000 -176.593462 -0.979598 178.210878 -14.522070 2.257483 2.724693 83.710081 -1.892121 0.346911 21.454560 -0.003104 -0.000018 6.832418 -0.459543 -0.011447 3.652262 -0.918554 -0.037204 3.334114 -0.918623 -0.031649 5.248200 5.986499 -1.332539 -12.767080 -1.991842 -0.047403 -168.119000 -75.017914 -13.606417 -23.975414 53.224686 35.854173 -30.006401 -15.046794 1.232823 2.880652 -12.318368 -0.377180 171.747798 70.664966 -7.164914 -8.842377 -52.962035 9.669892 -114.105106 -3.476845 -3.172954 -3.537019 -12.163314 9.024345 
-21.604879 91.792183 -60.832191 86.756305 -4.057708 -39.791992 179.677934 -3.067392 166.973578 -22.523445 -2.892499 -9.212772 87.419352 5.900538 -2.733682 21.454553 0.003092 0.000000 -177.200433 -1.429594 177.463204 -15.783956 2.576029 2.412183 84.376967 -1.740631 0.053437 21.454558 -0.003105 -0.000017 7.006117 -0.302093 -0.096484 3.999973 -0.600753 -0.203228 3.681878 -0.601841 -0.199595 4.604597 5.805430 -1.116953 -13.563554 -2.418044 0.346004 -168.853478 -75.045802 -12.854215 -23.994659 53.482324 35.429605 -30.436662 -15.374607 1.262239 3.178673 -12.925335 -1.289373 172.195394 70.971191 -6.694506 -9.548831 -53.200289 7.000543 -108.972902 -1.905545 -3.059703 -1.685291 -10.322430 1.377355 
